<svg data-v-fde0c5aa="" xmlns="http://www.w3.org/2000/svg" viewBox="0 0 300 300" class="icon"><!----><defs data-v-fde0c5aa=""><!----></defs><rect data-v-fde0c5aa="" fill="#DDEBFB" x="0" y="0" width="300px" height="300px" class="logo-background-square" style="--darkreader-inline-fill:#ddedfb;" data-darkreader-inline-fill=""></rect><!----><defs data-v-fde0c5aa=""><linearGradient data-v-fde0c5aa="" gradientTransform="rotate(25)" id="a7874a59-c454-4c91-bae5-dc4b9f02589c" x1="0%" y1="0%" x2="100%" y2="0%"><stop data-v-fde0c5aa="" offset="0%" stop-color="#E90DDA" stop-opacity="1"></stop><stop data-v-fde0c5aa="" offset="100%" stop-color="#15CFF1" stop-opacity="1"></stop></linearGradient></defs><g data-v-fde0c5aa="" id="0efe1af9-423e-4c33-9f06-8eab4b5a676c" fill="url(#a7874a59-c454-4c91-bae5-dc4b9f02589c)" stroke="none" style="--darkreader-inline-stroke:none;" data-darkreader-inline-stroke="" transform="matrix(2.75,0,0,2.75,12.5,12.5)"><path d="M74.415 30.553a1 1 0 0 0-.203 1.4 30.211 30.211 0 0 1 3.008 4.956 1 1 0 0 0 1.802-.869 32.292 32.292 0 0 0-3.207-5.285.999.999 0 0 0-1.4-.202zM35.954 76.757a30.329 30.329 0 0 1-4.848-3.18 1 1 0 1 0-1.252 1.559 32.278 32.278 0 0 0 5.168 3.39.997.997 0 0 0 1.35-.419 1 1 0 0 0-.418-1.35zM31.363 24.958a1 1 0 0 0-1.405-.16 32.63 32.63 0 0 0-4.445 4.294 1 1 0 1 0 1.52 1.3 30.606 30.606 0 0 1 4.17-4.029 1 1 0 0 0 .16-1.405zM50.999 19.816a30.54 30.54 0 0 1 5.75.742 1.001 1.001 0 0 0 .444-1.95 32.427 32.427 0 0 0-6.128-.79c-.543-.032-1.014.413-1.033.966A1 1 0 0 0 51 19.816zM48.936 80.197a30.209 30.209 0 0 1-5.748-.753 1 1 0 1 0-.45 1.95 32.212 32.212 0 0 0 6.164.802 1 1 0 0 0 .034-1.999zM18.8 49.941h1c0-.552-.448-.966-1-.966-.553 0-1 .481-1 1.034 0 2.046.193 4.093.574 6.083a1 1 0 0 0 1.964-.375 30.495 30.495 0 0 1-.538-5.73l-1-.046zM22.342 35.516a1.002 1.002 0 0 0-1.336.464 32.037 32.037 0 0 0-2.145 5.798 1 1 0 1 0 1.933.51 30.092 30.092 0 0 1 2.012-5.436 1 1 0 0 0-.464-1.336zM44.067 19.349a1.004 1.004 0 0 0-1.196-.755 32.141 32.141 0 0 0-5.87 1.94 1.001 1.001 0 0 0 .808 1.83 30.067 30.067 0 0 1 5.503-1.82 1 1 0 0 0 .755-1.195zM77.626 64.56a1 1 0 0 0 1.337-.461 32.027 32.027 0 0 0 2.158-5.793 1 1 0 1 0-1.933-.514 30.097 30.097 0 0 1-2.023 5.432 1 1 0 0 0 .461 1.337zM80.2 50.143a1 1 0 1 0 2 0v-.134c0-2.07-.198-4.14-.587-6.153a.997.997 0 0 0-1.172-.79 1 1 0 0 0-.792 1.171c.366 1.887.551 3.83.551 5.761v.145zM69.468 26.62a1 1 0 0 0 .625-1.781 32.23 32.23 0 0 0-5.176-3.38 1 1 0 1 0-.928 1.771 30.24 30.24 0 0 1 4.855 3.171.995.995 0 0 0 .624.22zM72.925 69.674a30.483 30.483 0 0 1-4.18 4.02.999.999 0 1 0 1.243 1.567 32.406 32.406 0 0 0 4.454-4.284 1 1 0 1 0-1.517-1.303zM62.132 77.68a30.033 30.033 0 0 1-5.507 1.807 1 1 0 1 0 .437 1.951 31.916 31.916 0 0 0 5.875-1.927 1 1 0 1 0-.805-1.83zM22.752 63.05a1 1 0 1 0-1.804.865 32.29 32.29 0 0 0 3.196 5.292 1 1 0 0 0 1.605-1.193 30.29 30.29 0 0 1-2.997-4.964zM62.729 57.708a8.61 8.61 0 0 0-4.579-7.6 8.61 8.61 0 0 0 4.579-7.601c0-4.742-3.859-8.6-8.601-8.6h-.235v-3.68a1 1 0 1 0-2 0v3.68h-4.556v-3.68a1 1 0 1 0-2 0v3.68h-4.045a1 1 0 0 0-1 1v30.402a1 1 0 0 0 1 1h4.045v3.466a1 1 0 1 0 2 0V66.31h4.556v3.466a1 1 0 1 0 2 0V66.31h.235c4.742 0 8.6-3.859 8.6-8.601zM42.292 35.906h11.836c3.64 0 6.6 2.961 6.6 6.6s-2.96 6.601-6.6 6.601H42.292v-13.2zM54.128 64.31H42.292V51.107h11.836c3.64 0 6.6 2.961 6.6 6.601s-2.96 6.6-6.6 6.6z"></path><path d="M50 10c-22.056 0-40 17.944-40 40s17.944 40 40 40 40-17.944 40-40-17.944-40-40-40zm0 78c-20.953 0-38-17.047-38-38s17.047-38 38-38 38 17.047 38 38-17.047 38-38 38z"></path></g><!----></svg>