<svg data-v-fde0c5aa="" xmlns="http://www.w3.org/2000/svg" viewBox="0 0 300 300" class="iconLeft"><!----><defs data-v-fde0c5aa=""><!----></defs><rect data-v-fde0c5aa="" fill="#DDEBFB" x="0" y="0" width="300px" height="300px" class="logo-background-square" style="--darkreader-inline-fill:#ddedfb;" data-darkreader-inline-fill=""></rect><defs data-v-fde0c5aa=""><!----></defs><g data-v-fde0c5aa="" id="5ebaab40-2fc9-4706-80f6-005b0c4aa261" fill="#262C4C" style="--darkreader-inline-fill:#262c4c;" data-darkreader-inline-fill="" transform="matrix(1.5987690687179565,0,0,1.5987690687179565,73.98072136489117,140.5354120468842)"><path d="M1.58 1.24L2.43 1.24L2.43 2.69L2.43 2.69Q2.73 2.43 3.10 2.13L3.10 2.13L3.10 2.13Q3.47 1.84 3.92 1.59L3.92 1.59L3.92 1.59Q4.36 1.35 4.88 1.18L4.88 1.18L4.88 1.18Q5.40 1.02 6.00 1.02L6.00 1.02L6.00 1.02Q6.95 1.02 7.68 1.45L7.68 1.45L7.68 1.45Q8.41 1.87 8.86 2.77L8.86 2.77L8.86 2.77Q9.30 2.37 9.76 2.04L9.76 2.04L9.76 2.04Q10.23 1.72 10.72 1.49L10.72 1.49L10.72 1.49Q11.20 1.26 11.72 1.14L11.72 1.14L11.72 1.14Q12.24 1.02 12.80 1.02L12.80 1.02L12.80 1.02Q13.50 1.02 14.08 1.26L14.08 1.26L14.08 1.26Q14.66 1.50 15.06 1.91L15.06 1.91L15.06 1.91Q15.46 2.33 15.69 2.90L15.69 2.90L15.69 2.90Q15.91 3.46 15.91 4.10L15.91 4.10L15.91 10.64L15.05 10.64L15.05 4.32L15.05 4.32Q15.05 3.73 14.91 3.27L14.91 3.27L14.91 3.27Q14.77 2.81 14.48 2.49L14.48 2.49L14.48 2.49Q14.18 2.17 13.72 2.00L13.72 2.00L13.72 2.00Q13.25 1.83 12.61 1.83L12.61 1.83L12.61 1.83Q12.10 1.83 11.60 1.98L11.60 1.98L11.60 1.98Q11.09 2.13 10.64 2.37L10.64 2.37L10.64 2.37Q10.18 2.61 9.78 2.92L9.78 2.92L9.78 2.92Q9.39 3.23 9.08 3.55L9.08 3.55L9.08 3.55Q9.12 3.75 9.12 3.88L9.12 3.88L9.12 3.88Q9.13 4.02 9.13 4.21L9.13 4.21L9.13 10.64L8.27 10.64L8.27 4.32L8.27 4.32Q8.27 3.62 8.09 3.15L8.09 3.15L8.09 3.15Q7.90 2.67 7.57 2.38L7.57 2.38L7.57 2.38Q7.25 2.08 6.80 1.96L6.80 1.96L6.80 1.96Q6.35 1.83 5.82 1.83L5.82 1.83L5.82 1.83Q5.33 1.83 4.84 2.00L4.84 2.00L4.84 2.00Q4.35 2.17 3.90 2.45L3.90 2.45L3.90 2.45Q3.46 2.72 3.08 3.06L3.08 3.06L3.08 3.06Q2.71 3.40 2.43 3.73L2.43 3.73L2.43 10.64L1.58 10.64L1.58 1.24ZM28.62 1.24L28.62 7.21L28.62 7.21Q28.62 8.13 28.18 8.80L28.18 8.80L28.18 8.80Q27.75 9.47 27.00 9.92L27.00 9.92L27.00 9.92Q26.24 10.36 25.21 10.58L25.21 10.58L25.21 10.58Q24.19 10.79 22.99 10.79L22.99 10.79L22.99 10.79Q21.69 10.79 20.60 10.63L20.60 10.63L20.60 10.63Q19.52 10.46 18.70 10.16L18.70 10.16L18.70 9.17L18.70 9.17Q19.14 9.35 19.61 9.51L19.61 9.51L19.61 9.51Q20.07 9.67 20.60 9.79L20.60 9.79L20.60 9.79Q21.12 9.91 21.72 9.97L21.72 9.97L21.72 9.97Q22.32 10.04 23.02 10.04L23.02 10.04L23.02 10.04Q24.00 10.04 24.86 9.85L24.86 9.85L24.86 9.85Q25.72 9.66 26.36 9.30L26.36 9.30L26.36 9.30Q27.00 8.94 27.37 8.42L27.37 8.42L27.37 8.42Q27.75 7.89 27.75 7.21L27.75 7.21L27.75 5.43L27.75 5.43Q27.42 5.87 26.94 6.28L26.94 6.28L26.94 6.28Q26.47 6.69 25.88 7.00L25.88 7.00L25.88 7.00Q25.30 7.31 24.62 7.50L24.62 7.50L24.62 7.50Q23.93 7.68 23.17 7.68L23.17 7.68L23.17 7.68Q22.31 7.68 21.65 7.52L21.65 7.52L21.65 7.52Q20.98 7.36 20.48 7.08L20.48 7.08L20.48 7.08Q19.99 6.80 19.65 6.42L19.65 6.42L19.65 6.42Q19.30 6.03 19.10 5.57L19.10 5.57L19.10 5.57Q18.89 5.12 18.80 4.62L18.80 4.62L18.80 4.62Q18.70 4.12 18.70 3.61L18.70 3.61L18.70 1.24L19.57 1.24L19.57 3.42L19.57 3.42Q19.57 4.21 19.76 4.85L19.76 4.85L19.76 4.85Q19.95 5.50 20.38 5.95L20.38 5.95L20.38 5.95Q20.81 6.41 21.51 6.66L21.51 6.66L21.51 6.66Q22.21 6.91 23.24 6.91L23.24 6.91L23.24 6.91Q24.04 6.91 24.71 6.70L24.71 6.70L24.71 6.70Q25.38 6.48 25.94 6.11L25.94 6.11L25.94 6.11Q26.49 5.75 26.94 5.27L26.94 5.27L26.94 5.27Q27.39 4.79 27.75 4.27L27.75 4.27L27.75 1.24L28.62 1.24ZM41.09 8.05L41.09 8.05L41.09 8.05Q41.09 8.59 40.95 9.00L40.95 9.00L40.95 9.00Q40.80 9.40 40.55 9.69L40.55 9.69L40.55 9.69Q40.29 9.98 39.93 10.16L39.93 10.16L39.93 10.16Q39.57 10.34 39.14 10.45L39.14 10.45L39.14 10.45Q38.71 10.55 38.22 10.60L38.22 10.60L38.22 10.60Q37.73 10.64 37.20 10.64L37.20 10.64L31.78 10.64L31.78 1.24L37.08 1.24L37.08 1.24Q37.48 1.24 37.88 1.28L37.88 1.28L37.88 1.28Q38.29 1.31 38.66 1.40L38.66 1.40L38.66 1.40Q39.03 1.50 39.35 1.66L39.35 1.66L39.35 1.66Q39.67 1.83 39.90 2.09L39.90 2.09L39.90 2.09Q40.14 2.36 40.27 2.73L40.27 2.73L40.27 2.73Q40.41 3.11 40.41 3.62L40.41 3.62L40.41 3.62Q40.41 4.08 40.29 4.42L40.29 4.42L40.29 4.42Q40.18 4.75 39.95 4.99L39.95 4.99L39.95 4.99Q39.72 5.23 39.37 5.38L39.37 5.38L39.37 5.38Q39.01 5.54 38.53 5.63L38.53 5.63L38.53 5.63Q39.22 5.67 39.70 5.86L39.70 5.86L39.70 5.86Q40.19 6.04 40.50 6.35L40.50 6.35L40.50 6.35Q40.80 6.66 40.95 7.09L40.95 7.09L40.95 7.09Q41.09 7.51 41.09 8.05ZM39.61 3.64L39.61 3.64L39.61 3.64Q39.61 3.44 39.58 3.24L39.58 3.24L39.58 3.24Q39.55 3.04 39.46 2.86L39.46 2.86L39.46 2.86Q39.36 2.68 39.18 2.52L39.18 2.52L39.18 2.52Q39.00 2.37 38.68 2.25L38.68 2.25L38.68 2.25Q38.37 2.14 37.91 2.07L37.91 2.07L37.91 2.07Q37.45 2.01 36.80 2.01L36.80 2.01L32.63 2.01L32.63 5.29L36.80 5.29L36.80 5.29Q37.72 5.29 38.27 5.16L38.27 5.16L38.27 5.16Q38.83 5.02 39.13 4.80L39.13 4.80L39.13 4.80Q39.42 4.57 39.52 4.27L39.52 4.27L39.52 4.27Q39.61 3.97 39.61 3.64ZM40.20 8.03L40.20 8.03L40.20 8.03Q40.20 7.50 40.01 7.12L40.01 7.12L40.01 7.12Q39.83 6.75 39.44 6.51L39.44 6.51L39.44 6.51Q39.06 6.27 38.46 6.16L38.46 6.16L38.46 6.16Q37.86 6.04 37.03 6.04L37.03 6.04L32.63 6.04L32.63 9.86L37.15 9.86L37.15 9.86Q38.00 9.86 38.59 9.77L38.59 9.77L38.59 9.77Q39.17 9.67 39.53 9.44L39.53 9.44L39.53 9.44Q39.89 9.22 40.04 8.87L40.04 8.87L40.04 8.87Q40.20 8.52 40.20 8.03ZM44.35 10.64L43.50 10.64L43.50 1.24L44.35 1.24L44.35 10.64ZM55.60 2.02L51.32 2.02L51.32 10.64L50.48 10.64L50.48 2.02L46.20 2.02L46.20 1.24L55.60 1.24L55.60 2.02ZM67.07 9.89L67.07 9.89L67.07 9.89Q66.58 10.10 66.10 10.27L66.10 10.27L66.10 10.27Q65.62 10.44 65.10 10.56L65.10 10.56L65.10 10.56Q64.58 10.68 64.00 10.75L64.00 10.75L64.00 10.75Q63.43 10.82 62.75 10.82L62.75 10.82L62.75 10.82Q61.92 10.82 61.15 10.68L61.15 10.68L61.15 10.68Q60.38 10.55 59.72 10.27L59.72 10.27L59.72 10.27Q59.06 10.00 58.52 9.59L58.52 9.59L58.52 9.59Q57.98 9.19 57.59 8.65L57.59 8.65L57.59 8.65Q57.20 8.11 56.99 7.43L56.99 7.43L56.99 7.43Q56.79 6.75 56.79 5.95L56.79 5.95L56.79 5.95Q56.79 5.14 56.99 4.46L56.99 4.46L56.99 4.46Q57.20 3.79 57.59 3.25L57.59 3.25L57.59 3.25Q57.98 2.71 58.52 2.30L58.52 2.30L58.52 2.30Q59.06 1.89 59.72 1.62L59.72 1.62L59.72 1.62Q60.38 1.35 61.15 1.21L61.15 1.21L61.15 1.21Q61.91 1.07 62.75 1.07L62.75 1.07L62.75 1.07Q63.43 1.07 64.00 1.14L64.00 1.14L64.00 1.14Q64.58 1.21 65.10 1.33L65.10 1.33L65.10 1.33Q65.62 1.46 66.10 1.62L66.10 1.62L66.10 1.62Q66.58 1.79 67.07 2.00L67.07 2.00L67.07 3.02L67.07 3.02Q66.68 2.78 66.24 2.56L66.24 2.56L66.24 2.56Q65.80 2.34 65.28 2.17L65.28 2.17L65.28 2.17Q64.76 2.01 64.18 1.91L64.18 1.91L64.18 1.91Q63.59 1.82 62.92 1.82L62.92 1.82L62.92 1.82Q61.56 1.82 60.57 2.11L60.57 2.11L60.57 2.11Q59.58 2.41 58.94 2.94L58.94 2.94L58.94 2.94Q58.29 3.48 57.98 4.24L57.98 4.24L57.98 4.24Q57.67 5.00 57.67 5.95L57.67 5.95L57.67 5.95Q57.67 6.89 57.98 7.65L57.98 7.65L57.98 7.65Q58.29 8.41 58.94 8.94L58.94 8.94L58.94 8.94Q59.58 9.48 60.57 9.77L60.57 9.77L60.57 9.77Q61.56 10.06 62.92 10.06L62.92 10.06L62.92 10.06Q63.59 10.06 64.19 9.97L64.19 9.97L64.19 9.97Q64.78 9.87 65.31 9.71L65.31 9.71L65.31 9.71Q65.83 9.54 66.27 9.33L66.27 9.33L66.27 9.33Q66.71 9.11 67.07 8.87L67.07 8.87L67.07 9.89ZM80.88 5.95L80.88 5.95L80.88 5.95Q80.88 7.21 80.42 8.13L80.42 8.13L80.42 8.13Q79.97 9.05 79.17 9.65L79.17 9.65L79.17 9.65Q78.37 10.25 77.28 10.53L77.28 10.53L77.28 10.53Q76.19 10.82 74.94 10.82L74.94 10.82L74.94 10.82Q73.67 10.82 72.58 10.53L72.58 10.53L72.58 10.53Q71.48 10.25 70.68 9.65L70.68 9.65L70.68 9.65Q69.87 9.05 69.41 8.13L69.41 8.13L69.41 8.13Q68.95 7.21 68.95 5.95L68.95 5.95L68.95 5.95Q68.95 5.11 69.17 4.42L69.17 4.42L69.17 4.42Q69.38 3.73 69.76 3.19L69.76 3.19L69.76 3.19Q70.14 2.65 70.69 2.25L70.69 2.25L70.69 2.25Q71.23 1.85 71.90 1.59L71.90 1.59L71.90 1.59Q72.56 1.33 73.33 1.20L73.33 1.20L73.33 1.20Q74.09 1.07 74.94 1.07L74.94 1.07L74.94 1.07Q76.19 1.07 77.28 1.36L77.28 1.36L77.28 1.36Q78.37 1.65 79.17 2.25L79.17 2.25L79.17 2.25Q79.97 2.84 80.42 3.76L80.42 3.76L80.42 3.76Q80.88 4.68 80.88 5.95ZM80.00 5.95L80.00 5.95L80.00 5.95Q80.00 4.95 79.68 4.18L79.68 4.18L79.68 4.18Q79.35 3.42 78.72 2.90L78.72 2.90L78.72 2.90Q78.08 2.37 77.13 2.10L77.13 2.10L77.13 2.10Q76.19 1.83 74.94 1.83L74.94 1.83L74.94 1.83Q73.68 1.83 72.73 2.11L72.73 2.11L72.73 2.11Q71.78 2.38 71.13 2.90L71.13 2.90L71.13 2.90Q70.49 3.42 70.16 4.19L70.16 4.19L70.16 4.19Q69.84 4.96 69.84 5.95L69.84 5.95L69.84 5.95Q69.84 6.95 70.16 7.71L70.16 7.71L70.16 7.71Q70.49 8.48 71.13 9.00L71.13 9.00L71.13 9.00Q71.78 9.52 72.73 9.79L72.73 9.79L72.73 9.79Q73.68 10.06 74.94 10.06L74.94 10.06L74.94 10.06Q76.19 10.06 77.13 9.79L77.13 9.79L77.13 9.79Q78.08 9.52 78.72 9.00L78.72 9.00L78.72 9.00Q79.35 8.48 79.68 7.71L79.68 7.71L79.68 7.71Q80.00 6.95 80.00 5.95ZM84.24 10.64L83.38 10.64L83.38 1.24L84.24 1.24L84.24 10.64ZM97.35 10.64L96.50 10.64L96.50 4.44L96.50 4.44Q96.50 3.66 96.29 3.15L96.29 3.15L96.29 3.15Q96.08 2.65 95.69 2.36L95.69 2.36L95.69 2.36Q95.31 2.06 94.75 1.95L94.75 1.95L94.75 1.95Q94.20 1.83 93.51 1.83L93.51 1.83L93.51 1.83Q92.71 1.83 91.94 2.03L91.94 2.03L91.94 2.03Q91.17 2.22 90.49 2.52L90.49 2.52L90.49 2.52Q89.80 2.82 89.23 3.18L89.23 3.18L89.23 3.18Q88.66 3.54 88.26 3.88L88.26 3.88L88.26 10.64L87.40 10.64L87.40 1.24L88.26 1.24L88.26 2.89L88.26 2.89Q88.74 2.59 89.31 2.26L89.31 2.26L89.31 2.26Q89.89 1.93 90.56 1.65L90.56 1.65L90.56 1.65Q91.23 1.37 91.98 1.20L91.98 1.20L91.98 1.20Q92.74 1.02 93.58 1.02L93.58 1.02L93.58 1.02Q94.53 1.02 95.24 1.25L95.24 1.25L95.24 1.25Q95.95 1.48 96.42 1.90L96.42 1.90L96.42 1.90Q96.89 2.32 97.12 2.92L97.12 2.92L97.12 2.92Q97.35 3.51 97.35 4.25L97.35 4.25L97.35 10.64ZM100.78 10.64L99.59 10.64L99.59 9.15L100.78 9.15L100.78 10.64ZM112.41 10.64L111.56 10.64L111.56 9.60L111.56 9.60Q111.07 9.86 110.44 10.09L110.44 10.09L110.44 10.09Q109.82 10.32 109.13 10.48L109.13 10.48L109.13 10.48Q108.43 10.64 107.70 10.73L107.70 10.73L107.70 10.73Q106.97 10.82 106.26 10.82L106.26 10.82L106.26 10.82Q105.35 10.82 104.62 10.66L104.62 10.66L104.62 10.66Q103.89 10.49 103.39 10.17L103.39 10.17L103.39 10.17Q102.88 9.84 102.61 9.36L102.61 9.36L102.61 9.36Q102.33 8.88 102.33 8.24L102.33 8.24L102.33 8.24Q102.33 7.62 102.65 7.13L102.65 7.13L102.65 7.13Q102.97 6.65 103.56 6.29L103.56 6.29L103.56 6.29Q104.15 5.93 104.98 5.68L104.98 5.68L104.98 5.68Q105.81 5.43 106.83 5.26L106.83 5.26L106.83 5.26Q107.86 5.09 109.05 4.97L109.05 4.97L109.05 4.97Q110.24 4.86 111.56 4.79L111.56 4.79L111.56 4.07L111.56 4.07Q111.56 3.63 111.40 3.29L111.40 3.29L111.40 3.29Q111.23 2.96 110.94 2.71L110.94 2.71L110.94 2.71Q110.65 2.46 110.25 2.29L110.25 2.29L110.25 2.29Q109.85 2.13 109.39 2.02L109.39 2.02L109.39 2.02Q108.93 1.92 108.42 1.88L108.42 1.88L108.42 1.88Q107.91 1.83 107.40 1.83L107.40 1.83L107.40 1.83Q106.71 1.83 106.14 1.90L106.14 1.90L106.14 1.90Q105.57 1.97 105.08 2.09L105.08 2.09L105.08 2.09Q104.59 2.21 104.14 2.37L104.14 2.37L104.14 2.37Q103.69 2.52 103.23 2.70L103.23 2.70L103.23 1.70L103.23 1.70Q104.18 1.45 105.26 1.26L105.26 1.26L105.26 1.26Q106.33 1.07 107.54 1.07L107.54 1.07L107.54 1.07Q108.57 1.07 109.46 1.25L109.46 1.25L109.46 1.25Q110.35 1.42 111.00 1.80L111.00 1.80L111.00 1.80Q111.66 2.19 112.03 2.79L112.03 2.79L112.03 2.79Q112.41 3.40 112.41 4.27L112.41 4.27L112.41 10.64ZM111.56 8.70L111.56 5.54L111.56 5.54Q109.33 5.67 107.74 5.89L107.74 5.89L107.74 5.89Q106.16 6.12 105.16 6.45L105.16 6.45L105.16 6.45Q104.15 6.77 103.68 7.21L103.68 7.21L103.68 7.21Q103.22 7.65 103.22 8.20L103.22 8.20L103.22 8.20Q103.22 8.65 103.44 9.00L103.44 9.00L103.44 9.00Q103.67 9.35 104.10 9.59L104.10 9.59L104.10 9.59Q104.54 9.82 105.15 9.94L105.15 9.94L105.15 9.94Q105.77 10.06 106.53 10.06L106.53 10.06L106.53 10.06Q106.98 10.06 107.46 10.01L107.46 10.01L107.46 10.01Q107.95 9.96 108.42 9.87L108.42 9.87L108.42 9.87Q108.90 9.78 109.37 9.65L109.37 9.65L109.37 9.65Q109.83 9.52 110.24 9.37L110.24 9.37L110.24 9.37Q110.65 9.22 110.99 9.05L110.99 9.05L110.99 9.05Q111.33 8.88 111.56 8.70L111.56 8.70ZM116.35 10.64L115.49 10.64L115.49 1.24L116.35 1.24L116.35 10.64Z"></path></g><defs data-v-fde0c5aa=""><linearGradient data-v-fde0c5aa="" gradientTransform="rotate(25)" id="21e91c1d-df69-4681-9de9-f6e3cd736590" x1="0%" y1="0%" x2="100%" y2="0%"><stop data-v-fde0c5aa="" offset="0%" stop-color="#E90DDA" stop-opacity="1"></stop><stop data-v-fde0c5aa="" offset="100%" stop-color="#15CFF1" stop-opacity="1"></stop></linearGradient></defs><g data-v-fde0c5aa="" id="c10e8d5a-7d20-4449-9fd3-f3253df97e9f" stroke="none" fill="url(#21e91c1d-df69-4681-9de9-f6e3cd736590)" style="--darkreader-inline-stroke:none;" data-darkreader-inline-stroke="" transform="matrix(0.29379722476005554,0,0,0.29379722476005554,37.062027650812325,135.31013825406163)"><path d="M74.415 30.553a1 1 0 0 0-.203 1.4 30.211 30.211 0 0 1 3.008 4.956 1 1 0 0 0 1.802-.869 32.292 32.292 0 0 0-3.207-5.285.999.999 0 0 0-1.4-.202zM35.954 76.757a30.329 30.329 0 0 1-4.848-3.18 1 1 0 1 0-1.252 1.559 32.278 32.278 0 0 0 5.168 3.39.997.997 0 0 0 1.35-.419 1 1 0 0 0-.418-1.35zM31.363 24.958a1 1 0 0 0-1.405-.16 32.63 32.63 0 0 0-4.445 4.294 1 1 0 1 0 1.52 1.3 30.606 30.606 0 0 1 4.17-4.029 1 1 0 0 0 .16-1.405zM50.999 19.816a30.54 30.54 0 0 1 5.75.742 1.001 1.001 0 0 0 .444-1.95 32.427 32.427 0 0 0-6.128-.79c-.543-.032-1.014.413-1.033.966A1 1 0 0 0 51 19.816zM48.936 80.197a30.209 30.209 0 0 1-5.748-.753 1 1 0 1 0-.45 1.95 32.212 32.212 0 0 0 6.164.802 1 1 0 0 0 .034-1.999zM18.8 49.941h1c0-.552-.448-.966-1-.966-.553 0-1 .481-1 1.034 0 2.046.193 4.093.574 6.083a1 1 0 0 0 1.964-.375 30.495 30.495 0 0 1-.538-5.73l-1-.046zM22.342 35.516a1.002 1.002 0 0 0-1.336.464 32.037 32.037 0 0 0-2.145 5.798 1 1 0 1 0 1.933.51 30.092 30.092 0 0 1 2.012-5.436 1 1 0 0 0-.464-1.336zM44.067 19.349a1.004 1.004 0 0 0-1.196-.755 32.141 32.141 0 0 0-5.87 1.94 1.001 1.001 0 0 0 .808 1.83 30.067 30.067 0 0 1 5.503-1.82 1 1 0 0 0 .755-1.195zM77.626 64.56a1 1 0 0 0 1.337-.461 32.027 32.027 0 0 0 2.158-5.793 1 1 0 1 0-1.933-.514 30.097 30.097 0 0 1-2.023 5.432 1 1 0 0 0 .461 1.337zM80.2 50.143a1 1 0 1 0 2 0v-.134c0-2.07-.198-4.14-.587-6.153a.997.997 0 0 0-1.172-.79 1 1 0 0 0-.792 1.171c.366 1.887.551 3.83.551 5.761v.145zM69.468 26.62a1 1 0 0 0 .625-1.781 32.23 32.23 0 0 0-5.176-3.38 1 1 0 1 0-.928 1.771 30.24 30.24 0 0 1 4.855 3.171.995.995 0 0 0 .624.22zM72.925 69.674a30.483 30.483 0 0 1-4.18 4.02.999.999 0 1 0 1.243 1.567 32.406 32.406 0 0 0 4.454-4.284 1 1 0 1 0-1.517-1.303zM62.132 77.68a30.033 30.033 0 0 1-5.507 1.807 1 1 0 1 0 .437 1.951 31.916 31.916 0 0 0 5.875-1.927 1 1 0 1 0-.805-1.83zM22.752 63.05a1 1 0 1 0-1.804.865 32.29 32.29 0 0 0 3.196 5.292 1 1 0 0 0 1.605-1.193 30.29 30.29 0 0 1-2.997-4.964zM62.729 57.708a8.61 8.61 0 0 0-4.579-7.6 8.61 8.61 0 0 0 4.579-7.601c0-4.742-3.859-8.6-8.601-8.6h-.235v-3.68a1 1 0 1 0-2 0v3.68h-4.556v-3.68a1 1 0 1 0-2 0v3.68h-4.045a1 1 0 0 0-1 1v30.402a1 1 0 0 0 1 1h4.045v3.466a1 1 0 1 0 2 0V66.31h4.556v3.466a1 1 0 1 0 2 0V66.31h.235c4.742 0 8.6-3.859 8.6-8.601zM42.292 35.906h11.836c3.64 0 6.6 2.961 6.6 6.6s-2.96 6.601-6.6 6.601H42.292v-13.2zM54.128 64.31H42.292V51.107h11.836c3.64 0 6.6 2.961 6.6 6.601s-2.96 6.6-6.6 6.6z"></path><path d="M50 10c-22.056 0-40 17.944-40 40s17.944 40 40 40 40-17.944 40-40-17.944-40-40-40zm0 78c-20.953 0-38-17.047-38-38s17.047-38 38-38 38 17.047 38 38-17.047 38-38 38z"></path></g><!----></svg>