<?xml version="1.0" encoding="UTF-8"?>
<svg width="188px" height="85px" viewBox="0 0 188 85" version="1.1" xmlns="http://www.w3.org/2000/svg" xmlns:xlink="http://www.w3.org/1999/xlink">
    <!-- Generator: Sketch 61.2 (89653) - https://sketch.com -->
    <title>pay-btn-currencies-alt</title>
    <desc>Created with Sketch.</desc>
    <defs>
        <rect id="path-1" x="0" y="0" width="188" height="50" rx="4"></rect>
        <path d="M9.5,19 C14.7467051,19 19,14.7467051 19,9.5 C19,4.25329488 14.7467051,0 9.5,0 C4.25329488,0 0,4.25329488 0,9.5 C0,14.7467051 4.25329488,19 9.5,19 Z" id="path-3"></path>
        <path d="M9.5,19 C14.7467051,19 19,14.7467051 19,9.5 C19,4.25329488 14.7467051,0 9.5,0 C4.25329488,0 0,4.25329488 0,9.5 C0,14.7467051 4.25329488,19 9.5,19 Z" id="path-5"></path>
        <path d="M9.5,19 C14.7467051,19 19,14.7467051 19,9.5 C19,4.25329488 14.7467051,0 9.5,0 C4.25329488,0 0,4.25329488 0,9.5 C0,14.7467051 4.25329488,19 9.5,19 Z" id="path-7"></path>
        <path d="M9.5,19 C14.7467051,19 19,14.7467051 19,9.5 C19,4.25329488 14.7467051,0 9.5,0 C4.25329488,0 0,4.25329488 0,9.5 C0,14.7467051 4.25329488,19 9.5,19 Z" id="path-9"></path>
    </defs>
    <g id="Payment-Button" stroke="none" stroke-width="1" fill="none" fill-rule="evenodd">
        <g id="Button-Patterns" transform="translate(-829.000000, -570.000000)">
            <g id="Button/payment/pay-btn-(v3)" transform="translate(829.000000, 570.000000)">
                <g id="Button/payment/pay-btn">
                    <g id="Group">
                        <g id="bg">
                            <mask id="mask-2" fill="white">
                                <use xlink:href="#path-1"></use>
                            </mask>
                            <use id="shape" fill="#1A3B8B" xlink:href="#path-1"></use>
                        </g>
                        <g id="Button/payment/pay-btn-text" transform="translate(31.000000, 12.000000)">
                            <g id="button/Large/bp-button-pay" transform="translate(4.956897, 2.985714)">
                                <g id="Mask">
                                    <g id="Logo/bitpay-logo-white" transform="translate(54.000000, 0.000000)" fill="#FFFFFF">
                                        <g id="Group">
                                            <path d="M60.9703132,5.30430676 L57.7998196,5.30430676 L55.9651176,13.3782674 L55.7076156,14.4861289 C55.530583,14.5364863 55.3535503,14.5868436 55.1765177,14.6204152 C54.8546401,14.6875583 54.5166687,14.7211298 54.1626035,14.7211298 C53.7602565,14.7211298 53.438379,14.6539867 53.1969709,14.5364863 C52.9716566,14.4189858 52.7946239,14.251128 52.6980607,14.016127 C52.6014974,13.7979119 52.5693097,13.5293394 52.5854035,13.2271953 C52.6014974,12.9250513 52.6658729,12.5893357 52.7463423,12.2536201 L53.7119749,8.05717483 L54.3396361,5.2707352 L51.1047669,5.2707352 L49.6402241,11.7164751 C49.4631915,12.488621 49.3666282,13.2271953 49.3344405,13.9321981 C49.3022527,14.6372009 49.4149099,15.2414891 49.6402241,15.7954198 C49.8655384,16.3325648 50.2678853,16.7522093 50.8150771,17.0711392 C51.3622689,17.390069 52.1508689,17.541141 53.1486892,17.541141 C53.8407259,17.541141 54.4522932,17.4739979 54.9672973,17.3564974 C54.9833912,17.3564974 55.0155789,17.3397117 55.0316728,17.3397117 L55.0316728,17.3397117 C54.8868279,18.0111429 54.5971381,18.5482879 54.1465096,18.9679324 C53.6797872,19.3875769 53.0038443,19.6057921 52.1025872,19.6057921 C51.7163342,19.6057921 51.3622689,19.5890063 51.0403914,19.538649 L50.4127302,22.2747313 C50.831171,22.3250886 51.2978934,22.3586602 51.8128975,22.3586602 C52.7785301,22.3586602 53.6154116,22.2411597 54.3396361,22.0229445 C55.0638605,21.7879436 55.6754278,21.452228 56.2065258,20.9822261 C56.7215298,20.5122243 57.1560645,19.9247219 57.5101298,19.2365049 C57.8641951,18.5315021 58.137791,17.7089988 58.3470114,16.7354236 L60.5357786,7.13395688 L60.5357786,7.13395688 L60.9703132,5.30430676 L60.9703132,5.30430676 Z" id="y_2_"></path>
                                            <path d="M47.6928651,12.2032627 C47.4997386,13.0425518 47.435363,13.8986266 47.5158324,14.7379156 C47.5963018,15.5939905 47.9181793,16.8864956 48.223963,17.541141 L45.1661264,17.541141 C44.7959673,16.8864956 44.8120612,16.5675657 44.7315918,16.3661364 C44.3292449,16.701852 43.8947102,16.9872103 43.4118939,17.2054254 C42.9290776,17.4236406 42.3979797,17.541141 41.7864124,17.541141 C41.0782818,17.541141 40.4667145,17.4068548 39.9678043,17.1550681 C39.4688941,16.9032814 39.0504534,16.55078 38.7285758,16.1143497 C38.4066983,15.6779194 38.181384,15.1743459 38.0365391,14.5868436 C37.8916942,13.9993413 37.8273187,13.3782674 37.8273187,12.7068361 C37.8273187,11.6829035 38.0043514,10.726114 38.3423228,9.81968182 C38.6963881,8.91324966 39.1792044,8.12431795 39.7907717,7.45288672 C40.402339,6.78145548 41.8990695,5.28752098 44.3453387,5.28752098 L49.2539711,5.28752098 L47.6928651,12.2032627 L47.6928651,12.2032627 Z M45.4558162,8.09074639 C43.9751796,8.09074639 43.7015837,8.09074639 43.0900164,8.40967623 C42.6554817,8.64467716 42.3014164,8.99717856 41.9956328,9.4000373 C41.6898491,9.80289604 41.4323471,10.2728979 41.2553144,10.8100429 C41.0782818,11.3471879 40.9817185,11.9011187 40.9817185,12.4718352 C40.9817185,13.176838 41.0943757,13.7475546 41.3196899,14.1671991 C41.5450042,14.5868436 41.963445,14.788273 42.5750123,14.788273 C42.8968899,14.788273 43.2026735,14.7211298 43.4601755,14.5868436 C43.7176776,14.4525574 44.0073673,14.2343422 44.2970571,13.9154124 C44.3292449,13.5461252 44.3775265,13.1600522 44.441902,12.7571935 C44.5062775,12.3543347 44.5867469,11.9682618 44.6511224,11.6325462 L45.4558162,8.09074639 L45.4558162,8.09074639 Z" id="a_2_"></path>
                                            <path d="M36.9582494,10.1553974 C36.9582494,11.2464732 36.7812168,12.2368343 36.4432454,13.1432664 C36.1052739,14.0496986 35.6224576,14.8218445 35.0108903,15.47649 C34.399323,16.1311354 33.6750986,16.6347089 32.8221231,17.003996 C31.9691477,17.3732832 31.0517967,17.5579268 30.0539764,17.5579268 C29.5711601,17.5579268 29.0883438,17.5075695 28.5894336,17.4236406 L27.623801,21.4690138 L24.4533073,21.4690138 L28.138805,5.32109254 L32.3714946,5.32109254 C33.1761884,5.32109254 33.8682251,5.45537879 34.4315108,5.7071655 C35.0108903,5.95895222 35.4776128,6.31145362 35.8638658,6.74788392 C36.234025,7.18431422 36.5076209,7.70467343 36.6846535,8.29217576 C36.87778,8.86289231 36.9582494,9.48396621 36.9582494,10.1553974 L36.9582494,10.1553974 Z M29.184907,14.7379156 C29.4263152,14.8050588 29.7320988,14.8218445 30.0861641,14.8218445 C30.6494498,14.8218445 31.14836,14.7211298 31.6150824,14.5029147 C32.0657109,14.2846995 32.4680578,13.9825555 32.7899354,13.5964825 C33.1118129,13.2104096 33.353221,12.7404077 33.5463476,12.2032627 C33.7233802,11.6661177 33.8199435,11.0618296 33.8199435,10.4071842 C33.8199435,9.76932448 33.6911925,9.21539371 33.4175966,8.77896341 C33.1440007,8.32574732 32.6772782,8.09074639 32.0013354,8.09074639 L30.746013,8.09074639 L29.184907,14.7379156 L29.184907,14.7379156 Z" id="p_2_"></path>
                                            <path d="M22.5220421,14.7379156 C22.1196952,14.7379156 21.7978177,14.6707725 21.5564095,14.553272 C21.3310953,14.4357716 21.1540626,14.2679138 21.0574994,14.0329128 C20.9609361,13.8146977 20.9287483,13.5461252 20.9448422,13.2439811 C20.9609361,12.9418371 21.0253116,12.6061215 21.105781,12.2704058 L22.0714136,8.07396061 L25.6764419,8.07396061 L26.3362909,5.28752098 L22.7151686,5.28752098 L23.5520502,1.76250699 L20.1723361,2.31643776 L18.0318506,11.7500466 C17.8548179,12.5221925 17.7582547,13.2607669 17.7260669,13.9657697 C17.6938791,14.6707725 17.8065363,15.2750606 18.0318506,15.8289914 C18.2571648,16.3661364 18.6595117,16.7857809 19.2067035,17.1047107 C19.7538954,17.4236406 20.5424953,17.5747126 21.5403156,17.5747126 C22.2323523,17.5747126 22.8439197,17.5075695 23.3589237,17.390069 C23.4072053,17.3732832 23.4876747,17.3564974 23.5359563,17.3397117 L24.1958053,14.4693431 C23.970491,14.553272 23.7451767,14.6036294 23.5359563,14.6372009 C23.2140788,14.7043441 22.8761074,14.7379156 22.5220421,14.7379156 L22.5220421,14.7379156 Z" id="t_2_"></path>
                                            <polygon id="i_bottom_6_" points="14.45901 5.30430676 11.6586754 17.5579268 14.8291691 17.5579268 17.6134098 5.30430676"></polygon>
                                            <polygon id="i_top_2_" points="17.9513812 3.89430117 18.4341975 1.76250699 15.2637038 1.76250699 14.7808875 3.89430117"></polygon>
                                            <path d="M7.44207978,5.32109254 C8.11802259,5.32109254 8.71349603,5.45537879 9.2124062,5.7071655 C9.71131637,5.95895222 10.1136633,6.29466784 10.4516347,6.73109814 C10.7735122,7.16752844 11.0149204,7.67110187 11.1758591,8.24181842 C11.3367979,8.81253497 11.4172673,9.43360886 11.4172673,10.1050401 C11.4172673,11.1289727 11.2402346,12.0857622 10.8700755,13.0089802 C10.4999163,13.9154124 10.0171,14.7211298 9.38943884,15.3925611 C8.76177765,16.0639923 8.02145933,16.6011373 7.16848387,16.9872103 C6.31550842,17.3732832 5.39815745,17.5747126 4.40033711,17.5747126 C4.27158609,17.5747126 4.04627182,17.5747126 3.72439429,17.5579268 C3.40251676,17.5579268 3.0323576,17.5243553 2.63001068,17.4572121 C2.21156989,17.390069 1.77703522,17.3061401 1.32640668,17.1886396 C0.85968426,17.0711392 0.425149593,16.9032814 0.022802679,16.701852 L3.70830041,0.55393077 L7.00754511,0.0167857809 L5.70394111,5.74073707 C5.99363089,5.60645082 6.25113291,5.50573613 6.54082269,5.43859301 C6.81441859,5.35466411 7.12020225,5.32109254 7.44207978,5.32109254 L7.44207978,5.32109254 Z M4.67393301,14.8218445 C5.17284318,14.8218445 5.6395656,14.7043441 6.07410027,14.4357716 C6.50863494,14.1839849 6.89488797,13.8482692 7.2167655,13.4286247 C7.53864304,13.0089802 7.79614506,12.5221925 7.9731777,12.0018333 C8.15021035,11.4646884 8.2467736,10.9107576 8.2467736,10.340041 C8.2467736,9.63503823 8.13411647,9.08110747 7.9088022,8.67824872 C7.68348792,8.27538998 7.2167655,8.09074639 6.60519819,8.09074639 C6.41207168,8.09074639 6.20285128,8.10753217 5.88097375,8.19146108 C5.55909622,8.2586042 5.28550032,8.42646201 5.02799829,8.66146294 L3.64392491,14.7547014 C4.0623657,14.8218445 4.19111671,14.8386303 4.30377385,14.8386303 C4.38424323,14.8218445 4.51299424,14.8218445 4.67393301,14.8218445 L4.67393301,14.8218445 Z" id="b_2_"></path>
                                        </g>
                                    </g>
                                    <g id="Pay-with-Clipped" transform="translate(0.000000, 5.007194)" fill="#97AAFF" fill-rule="nonzero">
                                        <path d="M3.46341407,0.507295238 C4.15438363,0.507295238 4.74770733,0.626719782 5.2434029,0.865572477 C5.73909842,1.10442522 6.11461974,1.43522065 6.36997809,1.85796882 C6.6253364,2.28071695 6.75301365,2.76898375 6.75301365,3.3227838 C6.75301365,3.9146312 6.6264093,4.41980767 6.37319688,4.83832832 C6.11998442,5.25684901 5.74768184,5.5749622 5.256278,5.7926775 C4.76487421,6.01039281 4.16725883,6.11924882 3.46341407,6.11924882 L1.24888908,6.11924882 L1.24888908,9.74006857 L0,9.74006857 L0,0.507295238 L3.46341407,0.507295238 Z M3.46341407,5.13002307 C4.15867536,5.13002307 4.67260309,4.9693812 5.0052127,4.64809261 C5.33782225,4.32680401 5.50412456,3.88926628 5.50412456,3.33546618 C5.50412456,3.00149515 5.43223907,2.69606421 5.28846588,2.41916416 C5.14469269,2.14226411 4.91937994,1.9203247 4.61252078,1.75333918 C4.30566163,1.58635366 3.92262988,1.50286213 3.46341407,1.50286213 L1.24888908,1.50286213 L1.24888908,5.13002307 L3.46341407,5.13002307 Z M13.1412048,8.24354763 C13.1412048,8.48451404 13.1626632,8.73287487 13.2055805,8.98863748 C13.2484979,9.24440014 13.3085809,9.46105529 13.3858322,9.63860952 L13.3858322,9.74006857 L12.1305055,9.74006857 C12.0575464,9.57519677 12.0017545,9.33634768 11.9631288,9.02351404 C11.7227916,9.27716294 11.4341769,9.48113585 11.0972755,9.63543893 C10.7603741,9.78974201 10.3902174,9.86689239 9.98679418,9.86689239 C9.52328639,9.86689239 9.11235894,9.77705976 8.75399913,9.59739176 C8.39563888,9.41772381 8.11882606,9.17359041 7.92355202,8.8649843 C7.72827803,8.55637814 7.63064248,8.21395725 7.63064248,7.83771144 C7.63064248,7.35155104 7.75831973,6.9393778 8.01367808,6.60117929 C8.26903639,6.26298078 8.63168265,6.00827885 9.10162802,5.83706581 C9.57157309,5.66585282 10.1262717,5.58024762 10.7657405,5.58024762 L11.9373787,5.58024762 L11.9373787,5.03490522 C11.9373787,4.61638457 11.8118471,4.28770281 11.5607803,4.04885011 C11.3097141,3.80999742 10.9481408,3.69057287 10.4760496,3.69057287 C10.1885034,3.69057287 9.93100277,3.74024501 9.70354105,3.83959083 C9.47607884,3.93893664 9.29904746,4.07210031 9.17244106,4.23908582 C9.04583465,4.40607134 8.98253267,4.58679348 8.98253267,4.78125762 L7.77870667,4.78125762 C7.77870667,4.44728659 7.89458181,4.12388909 8.12633556,3.81105545 C8.35808935,3.49822186 8.68425645,3.24351989 9.10484642,3.04694202 C9.52543687,2.85036411 10.0061041,2.75207667 10.5468627,2.75207667 C11.0618712,2.75207667 11.5135699,2.83768187 11.9019719,3.00889486 C12.290374,3.18010786 12.5940099,3.43798038 12.8128882,3.78252013 C13.0317671,4.12705983 13.1412048,4.54874482 13.1412048,5.04758761 L13.1412048,8.24354763 Z M10.1606086,8.85230192 C10.4352798,8.85230192 10.6917071,8.80474345 10.9298983,8.70962511 C11.16809,8.61450678 11.3730171,8.48874109 11.5446864,8.33232429 C11.7163562,8.17590745 11.8472519,8.00681077 11.9373787,7.82502905 L11.9373787,6.40460239 L10.9588673,6.40460239 C10.2721895,6.40460239 9.74645984,6.51134469 9.38166226,6.72483251 C9.01686469,6.93832029 8.83446834,7.25431981 8.83446834,7.67284046 C8.83446834,7.896897 8.88596855,8.09769936 8.98897045,8.27525355 C9.09197185,8.45280778 9.24218032,8.59336943 9.43960025,8.69694272 C9.63702018,8.80051602 9.87735402,8.85230192 10.1606086,8.85230192 Z M19.9478379,2.87890049 L17.1539313,10.7990474 C16.9822619,11.2598429 16.734418,11.6603907 16.4103917,12.000703 C16.0863653,12.3410152 15.6453961,12.5111688 15.0874703,12.5111688 C14.9973439,12.5111688 14.8803961,12.4995434 14.736623,12.4762923 C14.5928498,12.4530411 14.4844849,12.4308472 14.4115253,12.4097098 L14.4115253,11.4648724 C14.4587343,11.4733273 14.5123801,11.4807253 14.5724647,11.4870666 C14.6325488,11.4934078 14.6861951,11.4965783 14.7334041,11.4965783 C15.141119,11.4965783 15.4576299,11.4130868 15.682946,11.2461013 C15.9082621,11.0791158 16.0917313,10.7863671 16.2333583,10.3678464 L16.4972991,9.6639743 L14.0123957,2.87890049 L15.3256605,2.87890049 L17.0509303,8.01526476 L18.666761,2.87890049 L19.9478379,2.87890049 Z M32.5053425,2.87890049 L30.4839444,9.74006857 L29.5118708,9.74006857 L27.825227,4.55931595 L26.1772085,9.74006857 L25.2051348,9.74006857 L23.1837373,2.87890049 L24.3811256,2.87890049 L25.745891,7.97087641 L27.3617217,2.87890049 L28.3337953,2.87890049 L29.9753761,8.08501784 L31.3143915,2.87890049 L32.5053425,2.87890049 Z M34.1941054,0.380471416 C34.4172755,0.380471416 34.5921613,0.443882678 34.7187672,0.570707125 C34.8453736,0.697531572 34.9086756,0.858173488 34.9086756,1.05263764 C34.9086756,1.24287431 34.8453736,1.40034563 34.7187672,1.52505631 C34.5921613,1.64976699 34.4172755,1.71212142 34.1941054,1.71212142 C33.9709349,1.71212142 33.7981952,1.64976699 33.6758805,1.52505631 C33.5535663,1.40034563 33.4924099,1.24287431 33.4924099,1.05263764 C33.4924099,0.858173488 33.5535663,0.697531572 33.6758805,0.570707125 C33.7981952,0.443882678 33.9709349,0.380471416 34.1941054,0.380471416 Z M33.5825358,9.74006857 L33.5825358,2.87890049 L34.7863618,2.87890049 L34.7863618,9.74006857 L33.5825358,9.74006857 Z M39.4042202,9.74006857 C39.1295495,9.82461819 38.8226948,9.86689239 38.4836478,9.86689239 C37.9986811,9.86689239 37.6092121,9.72316015 37.315228,9.43569143 C37.021244,9.14822271 36.8742544,8.68109301 36.8742544,8.03428834 L36.8742544,3.77300834 L35.6060526,3.77300834 L35.6060526,2.87890049 L36.8742544,2.87890049 L36.8742544,1.21116738 L38.0780804,1.21116738 L38.0780804,2.87890049 L39.3784701,2.87890049 L39.3784701,3.77300834 L38.0780804,3.77300834 L38.0780804,8.04062953 C38.0780804,8.36614561 38.1467474,8.58491447 38.2840827,8.69694272 C38.4214186,8.80897097 38.6081061,8.8649843 38.8441517,8.8649843 C38.9342781,8.8649843 39.0329863,8.85758632 39.1402799,8.84279013 C39.2475735,8.82799393 39.3334067,8.81214114 39.3977829,8.79523117 L39.4042202,9.74006857 Z M43.7774511,2.75207667 C45.2666837,2.75207667 46.0112888,3.58276431 46.0112888,5.24416451 L46.0112888,9.74006857 L44.8074628,9.74006857 L44.8074628,5.23148212 C44.8074628,4.70727442 44.6926606,4.3268068 44.4630528,4.09006787 C44.2334449,3.85332889 43.8868923,3.73496118 43.4233845,3.73496118 C43.0542952,3.73496118 42.7227637,3.8343055 42.4287796,4.03299713 C42.1347956,4.23168876 41.9019728,4.49801609 41.730303,4.83198712 L41.730303,9.74006857 L40.5264769,9.74006857 L40.5264769,0 L41.730303,0 L41.730303,3.69057287 C41.9835158,3.39042167 42.2839327,3.15897051 42.6315631,2.99621248 C42.9791939,2.83345444 43.3611529,2.75207667 43.7774511,2.75207667 Z" id="Pay-with"></path>
                                    </g>
                                </g>
                            </g>
                        </g>
                    </g>
                </g>
                <g id="Label/supported-currencies-(color)" transform="translate(8.000000, 50.000000)">
                    <g id="BTC" transform="translate(22.000000, 6.000000)">
                        <rect id="Rectangle" stroke-opacity="0.142209353" stroke="#9BA3AE" fill-opacity="0.155949519" fill="#F6F7FC" x="0" y="0" width="28" height="28" rx="4"></rect>
                        <g id="Currency/Large/Bitcoin-(alt)" transform="translate(5.000000, 5.000000)">
                            <g id="Currency/Large/Bitcoin">
                                <g id="item-ico-backup">
                                    <mask id="mask-4" fill="white">
                                        <use xlink:href="#path-3"></use>
                                    </mask>
                                    <use id="Mask" fill="#F7931A" xlink:href="#path-3"></use>
                                </g>
                                <g id="Group" transform="translate(1.520000, 1.520000)" fill="#FFFFFF">
                                    <g id="Shape-2" transform="translate(3.800000, 2.660000)">
                                        <path d="M6.43650717,4.23271035 C6.18002658,5.273368 4.49446471,4.77042738 3.94490275,4.64186005 L4.40915464,2.79449512 C4.94633289,2.92306245 6.7050963,3.14542069 6.43650717,4.23271035 L6.43650717,4.23271035 Z M6.16764286,7.21426039 C5.88694521,8.36003764 3.85931748,7.76383301 3.21206173,7.61181796 L3.71291439,5.57739811 C4.37227868,5.72941316 6.46072422,6.00999554 6.16764286,7.21426039 Z M8.34167367,4.23271035 C8.50046048,3.11011737 7.60883265,2.52550488 6.38752268,2.12794731 L6.76618931,0.608060219 L5.80135994,0.385965434 L5.43507703,1.87081266 C5.17859643,1.81232506 4.92211584,1.75383747 4.66563524,1.70720547 L5.03191815,0.222094785 L4.05498026,0 L3.67631362,1.52015055 C3.46854232,1.47325509 3.26104622,1.43821522 3.05327492,1.39131976 L1.72216264,1.08755311 L1.47779056,2.06972317 C1.47779056,2.06972317 2.19852306,2.22147477 2.17403081,2.23333036 C2.56480597,2.32685782 2.63800751,2.57240034 2.62589899,2.75945526 L2.19852306,4.489845 C2.22274011,4.50170059 2.25961608,4.50170059 2.29621685,4.52488486 C2.25961608,4.51329273 2.23512383,4.51329273 2.19852306,4.50170059 L1.61208513,6.92182241 C1.56337583,7.0387976 1.44118979,7.20240479 1.17260067,7.14418066 C1.1847092,7.15577279 0.464251896,6.98031001 0.464251896,6.98031001 L0,8.04441539 L1.25791074,8.32499777 C1.49017428,8.38348537 1.72216264,8.43011737 1.94204246,8.48860496 L1.56337583,10.0203476 L2.5282052,10.2424424 L2.90687183,8.72255534 C3.17546095,8.79263507 3.43194155,8.85112267 3.67631362,8.90961026 L3.29764699,10.4179052 L4.26247636,10.64 L4.64114299,9.10852077 C6.28982889,9.38910315 7.52324738,9.26027237 8.02410005,7.82232061 C8.42725893,6.6762799 7.98749928,6.02158768 7.10825517,5.58899024 C7.75551093,5.44856733 8.21948763,5.05127321 8.34167367,4.23271035 L8.34167367,4.23271035 Z" id="Shape"></path>
                                    </g>
                                </g>
                            </g>
                        </g>
                    </g>
                    <g id="BCH" transform="translate(56.000000, 6.000000)">
                        <rect id="Rectangle" stroke-opacity="0.142209353" stroke="#9BA3AE" fill-opacity="0.155949519" fill="#F6F7FC" x="0" y="0" width="28" height="28" rx="4"></rect>
                        <g id="Currency/Large/Bitcoin-Cash-(alt)" transform="translate(5.000000, 5.000000)">
                            <g id="item-ico-backup" stroke-width="1">
                                <mask id="mask-6" fill="white">
                                    <use xlink:href="#path-5"></use>
                                </mask>
                                <use id="Mask" fill="#2FCF6E" xlink:href="#path-5"></use>
                            </g>
                            <path d="M11.7565072,8.38088546 C11.5000266,9.41371862 9.81446471,8.9145595 9.26490275,8.78695885 L9.72915464,6.95348388 C10.2663329,7.08108453 12.0250963,7.30177091 11.7565072,8.38088546 L11.7565072,8.38088546 Z M11.4876429,11.3400178 C11.2069452,12.4771802 9.17931748,11.8854583 8.53206173,11.7345862 L9.03291439,9.71546278 C9.69227868,9.86633487 11.7807242,10.1448076 11.4876429,11.3400178 Z M11.7075227,6.2919477 L12.0861893,4.78348834 L11.1213599,4.56306344 L10.755077,6.0367464 C10.4985964,5.97869856 10.2421158,5.92065072 9.98563524,5.87436934 L10.3519182,4.4004249 L9.37498026,4.18 L8.99631362,5.68872084 C8.78854232,5.64217798 8.58104622,5.60740157 8.37327492,5.56085871 L7.04216264,5.25937602 L6.79779056,6.23416134 C6.79779056,6.23416134 7.51852306,6.38477195 7.49403081,6.3965384 C7.88480597,6.48936265 7.95800751,6.73305898 7.94589899,6.91870747 L7.51852306,8.63608676 C7.54274011,8.64785322 7.57961608,8.64785322 7.61621685,8.67086317 C7.57961608,8.65935819 7.55512383,8.65935819 7.51852306,8.64785322 L6.93208513,11.0497786 C6.88337583,11.1658743 6.76118979,11.3282514 6.49260067,11.270465 C6.5047092,11.28197 5.7842519,11.1078265 5.7842519,11.1078265 L5.32,12.1639311 L6.57791074,12.4424038 C6.81017428,12.5004516 7.04216264,12.546733 7.26204246,12.6047809 L6.88337583,14.1250067 L7.8482052,14.3454316 L8.22687183,12.8369722 C8.49546095,12.906525 8.75194155,12.9645729 8.99631362,13.0226207 L8.61764699,14.5195751 L9.58247636,14.74 L9.96114299,13.2200357 C11.6098289,13.4985084 12.8432474,13.3706463 13.3441001,11.9435062 C13.7472589,10.8060823 13.3074993,10.1563126 12.4282552,9.72696776 C13.0755109,9.58760065 13.5394876,9.19329372 13.6616737,8.38088546 C13.8204605,7.26673303 12.9288326,6.68651612 11.7075227,6.2919477 Z" id="Shape" fill="#FFFFFF" transform="translate(9.500000, 9.460000) rotate(-32.000000) translate(-9.500000, -9.460000) "></path>
                        </g>
                    </g>
                    <g id="ETH" transform="translate(90.000000, 6.000000)">
                        <rect id="Rectangle" stroke-opacity="0.142209353" stroke="#9BA3AE" fill-opacity="0.155949519" fill="#F6F7FC" x="0" y="0" width="28" height="28" rx="4"></rect>
                        <g id="Currency/Large/Ethereum-(alt)" transform="translate(5.000000, 5.000000)">
                            <g id="item-ico-backup">
                                <mask id="mask-8" fill="white">
                                    <use xlink:href="#path-7"></use>
                                </mask>
                                <use id="Mask" fill="#6B71D6" xlink:href="#path-7"></use>
                            </g>
                            <g id="path0" transform="translate(5.700000, 3.040000)" fill="#E9ECFF">
                                <path d="M3.93552661,0.311306829 C3.90794754,0.378009323 3.07455627,1.79216404 2.08354601,3.45388432 C1.09253576,5.11557023 0.273461124,6.49694072 0.26332726,6.52360797 C0.25016684,6.55828227 0.788553854,6.8967433 2.15115045,7.71036938 L4.05743903,8.84860739 L5.96318351,7.70975081 C7.33230931,6.89155418 7.86372504,6.55711386 7.85042859,6.52206154 C7.78156593,6.340683 4.07570039,0.189998328 4.03526695,0.189998328 C4.00799394,0.189998328 3.96310568,0.244569971 3.93552661,0.311306829 M0.267850092,7.34221698 C0.341303601,7.46912698 4.04169413,12.7304794 4.05716698,12.7299983 C4.08273968,12.7292079 7.86600346,7.32661526 7.85142305,7.31180394 C7.83757423,7.29788611 4.30129788,9.40260579 4.15377875,9.51253948 L4.06335612,9.57996363 L2.23242539,8.48756855 C1.22539819,7.886765 0.364291829,7.37094613 0.318859473,7.34135786 C0.24353562,7.29231898 0.239012789,7.29238771 0.267850092,7.34221698" id="Shape"></path>
                            </g>
                        </g>
                    </g>
                    <g id="XRP" transform="translate(124.000000, 6.000000)">
                        <rect id="Rectangle" stroke-opacity="0.142209353" stroke="#9BA3AE" fill-opacity="0.155949519" fill="#F6F7FC" x="0" y="0" width="28" height="28" rx="4"></rect>
                        <g id="Currency/Large/XRP-" transform="translate(5.000000, 5.000000)">
                            <g id="XRP">
                                <mask id="mask-10" fill="white">
                                    <use xlink:href="#path-9"></use>
                                </mask>
                                <use id="Mask" fill="#000000" xlink:href="#path-9"></use>
                                <path d="M12.6800283,5.5 L13.9809007,5.5 L11.2730488,8.30759255 C10.2926196,9.3240981 8.70313605,9.3240981 7.72482905,8.30759255 L5.01697715,5.5 L6.31784955,5.5 L8.3742042,7.6327517 C8.9959915,8.27576045 10.0018863,8.27576045 10.6215515,7.6327517 L12.6800283,5.5 Z M6.30087245,13.3094789 L5,13.3094789 L7.72482905,10.4827871 C8.7052582,9.46628155 10.2947418,9.46628155 11.2751709,10.4827871 L14,13.3094789 L12.6991275,13.3094789 L10.6257958,11.1576279 C10.0040085,10.5146192 8.99811365,10.5146192 8.3784485,11.1576279 L6.30087245,13.3094789 Z" id="Shape" fill="#FFFFFF" fill-rule="nonzero" mask="url(#mask-10)"></path>
                            </g>
                        </g>
                    </g>
                </g>
            </g>
        </g>
    </g>
</svg>