<?xml version="1.0" encoding="UTF-8"?>
<svg xmlns="http://www.w3.org/2000/svg" xmlns:xlink="http://www.w3.org/1999/xlink" width="32pt" height="32pt" viewBox="0 0 32 32" version="1.1">
<defs>
<linearGradient id="linear0" gradientUnits="userSpaceOnUse" x1="0" y1="0" x2="1" y2="0" gradientTransform="matrix(23.231218,10.827942,-10.832895,23.220597,3.183594,3.117188)">
<stop offset="0" style="stop-color:rgb(91.372549%,5.098039%,85.490196%);stop-opacity:1;"/>
<stop offset="1" style="stop-color:rgb(8.235294%,81.176471%,94.509804%);stop-opacity:1;"/>
</linearGradient>
<linearGradient id="linear1" gradientUnits="userSpaceOnUse" x1="0" y1="0" x2="1" y2="0" gradientTransform="matrix(28.853158,13.456099,-13.454449,28.856698,0.0820313,0.00390625)">
<stop offset="0" style="stop-color:rgb(91.372549%,5.098039%,85.490196%);stop-opacity:1;"/>
<stop offset="1" style="stop-color:rgb(8.235294%,81.176471%,94.509804%);stop-opacity:1;"/>
</linearGradient>
</defs>
<g id="surface1">
<path style=" stroke:none;fill-rule:nonzero;fill:url(#linear0);" d="M 25.71875 8.183594 C 25.539062 8.316406 25.503906 8.566406 25.636719 8.742188 C 26.097656 9.359375 26.5 10.019531 26.832031 10.714844 C 26.929688 10.914062 27.167969 10.996094 27.363281 10.898438 C 27.5625 10.804688 27.644531 10.566406 27.550781 10.367188 C 27.195312 9.628906 26.765625 8.925781 26.273438 8.265625 C 26.210938 8.179688 26.117188 8.125 26.011719 8.109375 C 25.90625 8.09375 25.800781 8.121094 25.71875 8.183594 Z M 10.410156 26.574219 C 9.726562 26.214844 9.082031 25.789062 8.480469 25.308594 C 8.371094 25.214844 8.21875 25.191406 8.082031 25.242188 C 7.949219 25.292969 7.851562 25.414062 7.832031 25.554688 C 7.808594 25.699219 7.867188 25.839844 7.980469 25.929688 C 8.621094 26.445312 9.3125 26.894531 10.039062 27.277344 C 10.132812 27.328125 10.242188 27.335938 10.34375 27.304688 C 10.441406 27.273438 10.527344 27.203125 10.574219 27.113281 C 10.679688 26.917969 10.605469 26.675781 10.410156 26.574219 Z M 8.582031 5.957031 C 8.445312 5.785156 8.195312 5.757812 8.023438 5.894531 C 7.382812 6.40625 6.789062 6.980469 6.253906 7.605469 C 6.113281 7.769531 6.132812 8.023438 6.296875 8.164062 C 6.464844 8.308594 6.714844 8.289062 6.859375 8.121094 C 7.359375 7.535156 7.917969 7 8.519531 6.515625 C 8.691406 6.378906 8.71875 6.128906 8.582031 5.957031 Z M 16.398438 3.910156 C 17.167969 3.9375 17.933594 4.035156 18.6875 4.207031 C 18.894531 4.246094 19.097656 4.109375 19.144531 3.902344 C 19.191406 3.695312 19.066406 3.488281 18.863281 3.429688 C 18.0625 3.25 17.246094 3.144531 16.425781 3.117188 C 16.207031 3.105469 16.019531 3.28125 16.011719 3.5 C 16.007812 3.605469 16.046875 3.710938 16.121094 3.785156 C 16.191406 3.863281 16.292969 3.910156 16.398438 3.910156 Z M 15.578125 27.941406 C 14.804688 27.917969 14.039062 27.816406 13.289062 27.644531 C 13.074219 27.59375 12.859375 27.726562 12.8125 27.941406 C 12.761719 28.15625 12.894531 28.371094 13.109375 28.417969 C 13.914062 28.605469 14.738281 28.710938 15.5625 28.738281 C 15.777344 28.738281 15.953125 28.5625 15.957031 28.347656 C 15.960938 28.132812 15.792969 27.953125 15.578125 27.941406 Z M 3.582031 15.902344 L 3.980469 15.902344 C 3.980469 15.683594 3.800781 15.515625 3.582031 15.515625 C 3.363281 15.515625 3.183594 15.707031 3.183594 15.929688 C 3.183594 16.742188 3.261719 17.558594 3.414062 18.347656 C 3.457031 18.5625 3.664062 18.699219 3.875 18.65625 C 4.089844 18.617188 4.230469 18.414062 4.195312 18.199219 C 4.050781 17.449219 3.980469 16.683594 3.980469 15.917969 Z M 4.992188 10.160156 C 4.792969 10.066406 4.554688 10.148438 4.460938 10.34375 C 4.101562 11.085938 3.816406 11.859375 3.605469 12.652344 C 3.566406 12.792969 3.601562 12.941406 3.707031 13.046875 C 3.808594 13.148438 3.957031 13.1875 4.097656 13.148438 C 4.234375 13.109375 4.34375 12.996094 4.375 12.855469 C 4.574219 12.109375 4.839844 11.386719 5.175781 10.691406 C 5.273438 10.496094 5.191406 10.257812 4.992188 10.160156 Z M 13.640625 3.726562 C 13.589844 3.511719 13.375 3.378906 13.164062 3.425781 C 12.359375 3.605469 11.578125 3.867188 10.828125 4.199219 C 10.632812 4.292969 10.550781 4.519531 10.636719 4.714844 C 10.722656 4.910156 10.949219 5.003906 11.148438 4.925781 C 11.851562 4.613281 12.585938 4.371094 13.339844 4.203125 C 13.550781 4.152344 13.6875 3.941406 13.640625 3.726562 Z M 26.996094 21.71875 C 27.191406 21.816406 27.429688 21.734375 27.527344 21.535156 C 27.886719 20.796875 28.175781 20.023438 28.386719 19.230469 C 28.441406 19.019531 28.316406 18.800781 28.105469 18.742188 C 27.890625 18.6875 27.671875 18.8125 27.617188 19.027344 C 27.417969 19.769531 27.148438 20.496094 26.8125 21.1875 C 26.714844 21.386719 26.796875 21.625 26.996094 21.71875 Z M 28.019531 15.980469 C 28.019531 16.203125 28.199219 16.378906 28.417969 16.378906 C 28.636719 16.378906 28.816406 16.203125 28.816406 15.980469 L 28.816406 15.929688 C 28.816406 15.105469 28.738281 14.28125 28.582031 13.480469 C 28.5625 13.375 28.5 13.285156 28.414062 13.226562 C 28.328125 13.167969 28.21875 13.144531 28.117188 13.164062 C 27.898438 13.207031 27.757812 13.414062 27.800781 13.632812 C 27.945312 14.382812 28.019531 15.15625 28.019531 15.925781 Z M 23.75 6.621094 C 23.917969 6.621094 24.066406 6.511719 24.125 6.351562 C 24.179688 6.195312 24.128906 6.015625 23.996094 5.910156 C 23.355469 5.398438 22.664062 4.945312 21.9375 4.566406 C 21.8125 4.496094 21.65625 4.5 21.535156 4.574219 C 21.410156 4.652344 21.339844 4.789062 21.347656 4.933594 C 21.351562 5.078125 21.4375 5.207031 21.566406 5.269531 C 22.25 5.628906 22.898438 6.050781 23.5 6.53125 C 23.570312 6.589844 23.65625 6.621094 23.75 6.621094 Z M 25.125 23.753906 C 24.621094 24.339844 24.066406 24.875 23.460938 25.355469 C 23.289062 25.492188 23.257812 25.742188 23.394531 25.914062 C 23.53125 26.085938 23.78125 26.117188 23.957031 25.980469 C 24.597656 25.46875 25.191406 24.898438 25.726562 24.273438 C 25.824219 24.167969 25.851562 24.015625 25.804688 23.878906 C 25.757812 23.746094 25.644531 23.644531 25.5 23.617188 C 25.359375 23.59375 25.214844 23.644531 25.125 23.753906 Z M 20.828125 26.941406 C 20.121094 27.25 19.390625 27.492188 18.636719 27.660156 C 18.496094 27.6875 18.378906 27.792969 18.335938 27.929688 C 18.289062 28.066406 18.324219 28.21875 18.421875 28.324219 C 18.523438 28.429688 18.671875 28.472656 18.8125 28.4375 C 19.613281 28.257812 20.394531 28 21.148438 27.671875 C 21.28125 27.617188 21.375 27.492188 21.394531 27.347656 C 21.410156 27.203125 21.347656 27.0625 21.230469 26.976562 C 21.113281 26.894531 20.960938 26.878906 20.828125 26.941406 Z M 5.15625 21.117188 C 5.058594 20.921875 4.824219 20.835938 4.625 20.933594 C 4.425781 21.027344 4.34375 21.265625 4.4375 21.464844 C 4.792969 22.203125 5.21875 22.910156 5.710938 23.570312 C 5.839844 23.742188 6.089844 23.777344 6.261719 23.648438 C 6.4375 23.515625 6.476562 23.269531 6.347656 23.09375 C 5.886719 22.476562 5.488281 21.8125 5.15625 21.117188 Z M 21.066406 18.992188 C 21.066406 17.726562 20.363281 16.5625 19.242188 15.96875 C 20.363281 15.375 21.066406 14.210938 21.066406 12.941406 C 21.066406 11.054688 19.53125 9.519531 17.644531 9.519531 L 17.550781 9.519531 L 17.550781 8.054688 C 17.550781 7.835938 17.371094 7.65625 17.152344 7.65625 C 16.929688 7.65625 16.753906 7.835938 16.753906 8.054688 L 16.753906 9.519531 L 14.941406 9.519531 L 14.941406 8.054688 C 14.941406 7.835938 14.761719 7.65625 14.542969 7.65625 C 14.324219 7.65625 14.144531 7.835938 14.144531 8.054688 L 14.144531 9.519531 L 12.535156 9.519531 C 12.3125 9.519531 12.136719 9.699219 12.136719 9.917969 L 12.136719 22.019531 C 12.136719 22.238281 12.3125 22.414062 12.535156 22.414062 L 14.144531 22.414062 L 14.144531 23.796875 C 14.144531 24.015625 14.324219 24.191406 14.542969 24.191406 C 14.761719 24.191406 14.941406 24.015625 14.941406 23.796875 L 14.941406 22.417969 L 16.753906 22.417969 L 16.753906 23.796875 C 16.753906 24.015625 16.929688 24.195312 17.152344 24.195312 C 17.371094 24.195312 17.550781 24.015625 17.550781 23.796875 L 17.550781 22.417969 L 17.644531 22.417969 C 19.53125 22.417969 21.066406 20.878906 21.066406 18.992188 Z M 12.933594 10.316406 L 17.644531 10.316406 C 19.089844 10.316406 20.269531 11.492188 20.269531 12.941406 C 20.269531 14.390625 19.089844 15.570312 17.644531 15.570312 L 12.933594 15.570312 Z M 17.644531 21.621094 L 12.933594 21.621094 L 12.933594 16.367188 L 17.644531 16.367188 C 19.089844 16.367188 20.269531 17.542969 20.269531 18.992188 C 20.269531 20.441406 19.089844 21.621094 17.644531 21.621094 Z M 17.644531 21.621094 "/>
<path style=" stroke:none;fill-rule:nonzero;fill:url(#linear1);" d="M 16 0.00390625 C 7.222656 0.00390625 0.0820312 7.148438 0.0820312 15.925781 C 0.0820312 24.703125 7.222656 31.84375 16 31.84375 C 24.777344 31.84375 31.917969 24.703125 31.917969 15.925781 C 31.917969 7.148438 24.777344 0.00390625 16 0.00390625 Z M 16 31.046875 C 7.660156 31.046875 0.875 24.265625 0.875 15.925781 C 0.875 7.585938 7.660156 0.800781 16 0.800781 C 24.339844 0.800781 31.125 7.585938 31.125 15.925781 C 31.125 24.265625 24.339844 31.046875 16 31.046875 Z M 16 31.046875 "/>
</g>
</svg>
